<svg xmlns="http://www.w3.org/2000/svg" viewBox="0 0 512 512">
  <defs>
    <linearGradient id="background" x1="0" y1="0" x2="1" y2="1">
      <stop offset="0" stop-color="#111827" />
      <stop offset="1" stop-color="#071013" />
    </linearGradient>
    <linearGradient id="accent" x1="0" y1="0" x2="1" y2="1">
      <stop offset="0" stop-color="#5eead4" />
      <stop offset="1" stop-color="#0ea5e9" />
    </linearGradient>
  </defs>
  <rect width="512" height="512" rx="116" fill="url(#background)" />
  <path
    d="M126 157c0-17 14-31 31-31h198c17 0 31 14 31 31v198c0 17-14 31-31 31H157c-17 0-31-14-31-31V157Z"
    fill="none"
    stroke="url(#accent)"
    stroke-width="24"
  />
  <path
    d="M224 207h-42c-13 0-23 10-23 23v53c0 13 10 23 23 23h42v-42h-25v-16h73v58h59c13 0 23-10 23-23v-13c0-11-7-20-17-22 10-4 17-13 17-24 0-14-11-25-25-25h-57v42h38v-13h7v28h-45v-49h-48v58h-18v-40h18v-18Z"
    fill="url(#accent)"
  />
</svg>
